<?xml version="1.0" encoding="UTF-8"?>
<svg version="1.1" xmlns="http://www.w3.org/2000/svg" width="866" height="890">
<path d="M0 0 C285.78 0 571.56 0 866 0 C866 293.7 866 587.4 866 890 C580.22 890 294.44 890 0 890 C0 596.3 0 302.6 0 0 Z " fill="#E6F0F9" transform="translate(0,0)"/>
<path d="M0 0 C0.0700213 21.07034044 0.1229544 42.14066175 0.15543652 63.21109486 C0.1709181 72.99404091 0.19203225 82.77691475 0.22631836 92.55981445 C0.25618123 101.08467537 0.2755656 109.60948401 0.28226548 118.13439578 C0.28618304 122.65001978 0.29541651 127.16549418 0.31719017 131.68107033 C0.33750623 135.92865049 0.34384374 140.17601898 0.33932304 144.42364311 C0.34015044 145.98496271 0.34614517 147.54628916 0.35761642 149.10756683 C0.37248471 151.23500373 0.36897505 153.36163547 0.36076355 155.48908997 C0.36352893 156.68096829 0.36629431 157.87284662 0.36914349 159.10084248 C0 162 0 162 -1.39754772 163.90693188 C-3 165 -3 165 -5 165 C-5.32097656 165.82757812 -5.32097656 165.82757812 -5.6484375 166.671875 C-7.45469533 169.78323241 -9.95096544 171.90538741 -12.625 174.25 C-17.08248151 178.22927141 -21.35828629 182.30123388 -25.4765625 186.63671875 C-27 188 -27 188 -29 188 C-29.32097656 188.82757812 -29.32097656 188.82757812 -29.6484375 189.671875 C-31.45469533 192.78323241 -33.95096544 194.90538741 -36.625 197.25 C-41.08248151 201.22927141 -45.35828629 205.30123388 -49.4765625 209.63671875 C-51 211 -51 211 -53 211 C-53.32097656 211.82757812 -53.32097656 211.82757812 -53.6484375 212.671875 C-55.45469533 215.78323241 -57.95096544 217.90538741 -60.625 220.25 C-65.08248151 224.22927141 -69.35828629 228.30123388 -73.4765625 232.63671875 C-75 234 -75 234 -77 234 C-77 234.66 -77 235.32 -77 236 C-77.66 236 -78.32 236 -79 236 C-79 236.66 -79 237.32 -79 238 C-27.19 238 24.62 238 78 238 C78 279.58 78 321.16 78 364 C-73.14 364 -224.28 364 -380 364 C-375 359 -375 359 -372.71875 356.72265625 C-370.46378139 354.46444774 -368.21524323 352.2002187 -365.96875 349.93359375 C-364.47922313 348.43483972 -362.98963843 346.93614315 -361.5 345.4375 C-360.38044922 344.30538086 -360.38044922 344.30538086 -359.23828125 343.15039062 C-355.63128886 339.52743809 -352.03034634 336.15388403 -348 333 C-346.30923394 331.35778634 -344.64620429 329.68688085 -343 328 C-340.33763355 325.30822702 -337.66847926 322.62321114 -335 319.9375 C-334.30132812 319.23044922 -333.60265625 318.52339844 -332.8828125 317.79492188 C-329.39466028 314.29031611 -325.89257152 311.05750972 -322 308 C-320.30935629 306.35766039 -318.64611524 304.68696774 -317 303 C-314.40018185 300.37067934 -311.79351537 297.74817634 -309.1875 295.125 C-308.51396484 294.44308594 -307.84042969 293.76117187 -307.14648438 293.05859375 C-303.86685151 289.76326886 -300.55661928 286.56752161 -297.03125 283.53515625 C-292.56190736 279.68380355 -288.44516694 275.51903051 -284.3125 271.3125 C-280.02764381 266.95227255 -275.82205106 262.77056462 -271 259 C-269.30923394 257.35778634 -267.64620429 255.68688085 -266 254 C-263.33763355 251.30822702 -260.66847926 248.62321114 -258 245.9375 C-257.30132812 245.23044922 -256.60265625 244.52339844 -255.8828125 243.79492188 C-252.39466028 240.29031611 -248.89257152 237.05750972 -245 234 C-243.30955746 232.35745333 -241.6459651 230.68711423 -240 229 C-237.50413273 226.47506155 -235.00175948 223.95659841 -232.5 221.4375 C-231.52353516 220.4484668 -231.52353516 220.4484668 -230.52734375 219.43945312 C-227.15857263 216.05366801 -223.75482728 212.96005551 -220 210 C-218.30923394 208.35778634 -216.64620429 206.68688085 -215 205 C-212.33763355 202.30822702 -209.66847926 199.62321114 -207 196.9375 C-206.30132812 196.23044922 -205.60265625 195.52339844 -204.8828125 194.79492188 C-201.39466028 191.29031611 -197.89257152 188.05750972 -194 185 C-192.30955746 183.35745333 -190.6459651 181.68711423 -189 180 C-186.50413273 177.47506155 -184.00175948 174.95659841 -181.5 172.4375 C-180.52353516 171.4484668 -180.52353516 171.4484668 -179.52734375 170.43945312 C-176.15857263 167.05366801 -172.75482728 163.96005551 -169 161 C-167.30923394 159.35778634 -165.64620429 157.68688085 -164 156 C-161.33763355 153.30822702 -158.66847926 150.62321114 -156 147.9375 C-155.30132812 147.23044922 -154.60265625 146.52339844 -153.8828125 145.79492188 C-150.39466028 142.29031611 -146.89257152 139.05750972 -143 136 C-141.30955746 134.35745333 -139.6459651 132.68711423 -138 131 C-135.50413273 128.47506155 -133.00175948 125.95659841 -130.5 123.4375 C-129.84902344 122.77814453 -129.19804687 122.11878906 -128.52734375 121.43945312 C-125.15857263 118.05366801 -121.75482728 114.96005551 -118 112 C-116.30923394 110.35778634 -114.64620429 108.68688085 -113 107 C-110.33763355 104.30822702 -107.66847926 101.62321114 -105 98.9375 C-104.30132812 98.23044922 -103.60265625 97.52339844 -102.8828125 96.79492188 C-99.39466028 93.29031611 -95.89257152 90.05750972 -92 87 C-90.30923394 85.35778634 -88.64620429 83.68688085 -87 82 C-84.33763355 79.30822702 -81.66847926 76.62321114 -79 73.9375 C-78.30132812 73.23044922 -77.60265625 72.52339844 -76.8828125 71.79492188 C-73.39466028 68.29031611 -69.89257152 65.05750972 -66 62 C-64.30955746 60.35745333 -62.6459651 58.68711423 -61 57 C-58.50413273 54.47506155 -56.00175948 51.95659841 -53.5 49.4375 C-52.84902344 48.77814453 -52.19804687 48.11878906 -51.52734375 47.43945312 C-48.15857263 44.05366801 -44.75482728 40.96005551 -41 38 C-39.30923394 36.35778634 -37.64620429 34.68688085 -36 33 C-33.33763355 30.30822702 -30.66847926 27.62321114 -28 24.9375 C-26.95199219 23.87692383 -26.95199219 23.87692383 -25.8828125 22.79492188 C-22.39916405 19.29484112 -18.92602899 16.01067068 -15 13 C-12.61245982 10.67698793 -10.28914832 8.29975415 -7.9765625 5.90234375 C-7.26242187 5.17144531 -6.54828125 4.44054687 -5.8125 3.6875 C-5.13832031 2.99011719 -4.46414063 2.29273438 -3.76953125 1.57421875 C-2 0 -2 0 0 0 Z " fill="#102B50" transform="translate(544,366)"/>
<path d="M0 0 C150.81 0 301.62 0 457 0 C457 41.58 457 83.16 457 126 C401.89 126 346.78 126 290 126 C294.55980964 131.21121102 299.07352852 136.17732997 304 141 C308.39788227 145.34683853 312.66675417 149.72489226 316.66796875 154.4453125 C318.34467275 156.40228667 320.14161257 158.21594807 322 160 C321.34 161.32 320.68 162.64 320 164 C319.34 164 318.68 164 318 164 C318 164.66 318 165.32 318 166 C316.35546875 167.69140625 316.35546875 167.69140625 314.1875 169.5625 C313.47980469 170.18253906 312.77210938 170.80257812 312.04296875 171.44140625 C310 173 310 173 307 174 C307 174.66 307 175.32 307 176 C305.3203125 177.7265625 305.3203125 177.7265625 303.125 179.625 C302.40570313 180.25664062 301.68640625 180.88828125 300.9453125 181.5390625 C299 183 299 183 297 183 C297 183.66 297 184.32 297 185 C295.35546875 186.69140625 295.35546875 186.69140625 293.1875 188.5625 C292.47980469 189.18253906 291.77210938 189.80257812 291.04296875 190.44140625 C289 192 289 192 286 193 C286 193.66 286 194.32 286 195 C284.3203125 196.7265625 284.3203125 196.7265625 282.125 198.625 C281.40570313 199.25664062 280.68640625 199.88828125 279.9453125 200.5390625 C278 202 278 202 276 202 C276 202.66 276 203.32 276 204 C274.35546875 205.69140625 274.35546875 205.69140625 272.1875 207.5625 C271.47980469 208.18253906 270.77210938 208.80257812 270.04296875 209.44140625 C268 211 268 211 265 212 C265 212.66 265 213.32 265 214 C263.3203125 215.7265625 263.3203125 215.7265625 261.125 217.625 C260.40570313 218.25664062 259.68640625 218.88828125 258.9453125 219.5390625 C257 221 257 221 255 221 C255 221.66 255 222.32 255 223 C253.35546875 224.69140625 253.35546875 224.69140625 251.1875 226.5625 C250.47980469 227.18253906 249.77210938 227.80257812 249.04296875 228.44140625 C247 230 247 230 244 231 C244 231.66 244 232.32 244 233 C242.3203125 234.7265625 242.3203125 234.7265625 240.125 236.625 C239.40570313 237.25664062 238.68640625 237.88828125 237.9453125 238.5390625 C236 240 236 240 234 240 C233.67 240.99 233.34 241.98 233 243 C231.37667033 244.38576923 229.71275535 245.72641268 228 247 C220.59488772 243.82399248 215.27906305 236.412621 210.12890625 230.4140625 C207.23405114 227.13145615 204.24249035 223.94350833 201.25 220.75 C195.12107666 214.20724476 189.0465241 207.61897609 183 201 C181.18834255 199.02006087 179.37563685 197.04108438 177.5625 195.0625 C177.11108643 194.56983643 176.65967285 194.07717285 176.19458008 193.56958008 C172.30028303 189.32207132 168.39138702 185.08813942 164.48071289 180.85571289 C160.69148823 176.75321792 156.9157731 172.63855333 153.14453125 168.51953125 C149.77212711 164.83790953 146.38828219 161.16700977 143 157.5 C138.70354969 152.85011419 134.41971598 148.18896933 130.14453125 143.51953125 C126.77212711 139.83790953 123.38828219 136.16700977 120 132.5 C115.70354969 127.85011419 111.41971598 123.18896933 107.14453125 118.51953125 C103.77212711 114.83790953 100.38828219 111.16700977 97 107.5 C92.70354969 102.85011419 88.41971598 98.18896933 84.14453125 93.51953125 C80.77212711 89.83790953 77.38828219 86.16700977 74 82.5 C69.70354969 77.85011419 65.41971598 73.18896933 61.14453125 68.51953125 C57.77212711 64.83790953 54.38828219 61.16700977 51 57.5 C46.70354969 52.85011419 42.41971598 48.18896933 38.14453125 43.51953125 C34.77212701 39.83790943 31.38825992 36.16703046 28 32.5 C23.23911733 27.34690946 18.48944871 22.18387533 13.7578125 17.00390625 C11.80832616 14.87328542 9.8421643 12.75935073 7.8671875 10.65234375 C7.35615479 10.10392822 6.84512207 9.5555127 6.31860352 8.99047852 C5.33350513 7.93384113 4.34455192 6.88078115 3.35131836 5.83178711 C0 2.22489617 0 2.22489617 0 0 Z " fill="#102B50" transform="translate(165,152)"/>
<path d="M0 0 C0.66 0 1.32 0 2 0 C0.61410019 3.09162264 -0.49183541 4.49183541 -3 7 C221.235 7.495 221.235 7.495 450 8 C450 8.33 450 8.66 450 9 C298.86 9 147.72 9 -8 9 C-6.35 7.35 -4.7 5.7 -3 4 C-2.443125 3.236875 -1.88625 2.47375 -1.3125 1.6875 C-0.879375 1.130625 -0.44625 0.57375 0 0 Z " fill="#304A6A" transform="translate(172,721)"/>
</svg>
